PathFileType	4	(X/Y/Z)	./resultDataOpenSim/trcMotMarkerGrf/sub06/qtm-05-07.trc
DataRate	CameraRate	NumFrames	NumMarkers	Units	OrigDataRate	OrigDataStartFrame	OrigNumFrames
250.000000	250.000000	7	24	m	250.000000	200	533
Frame#	Time	L.Toe.Tip			R.Toe.Tip			L.Ankle.Lat			R.Ankle.Lat			L.Ankle.Med			R.Ankle.Med			L.Heel			R.Heel			L.Knee.Lat			R.Knee.Lat			L.Knee.Med			R.Knee.Med			L.Thigh.Upper			R.Thigh.Upper			L.ASIS			R.ASIS			V.Sacral			L.Acromium			R.Acromium			C7			L.Elbow			R.Elbow			L.Wrist.Lat			R.Wrist.Lat
		X1	Y1	Z1	X2	Y2	Z2	X3	Y3	Z3	X4	Y4	Z4	X5	Y5	Z5	X6	Y6	Z6	X7	Y7	Z7	X8	Y8	Z8	X9	Y9	Z9	X10	Y10	Z10	X11	Y11	Z11	X12	Y12	Z12	X13	Y13	Z13	X14	Y14	Z14	X15	Y15	Z15	X16	Y16	Z16	X17	Y17	Z17	X18	Y18	Z18	X19	Y19	Z19	X20	Y20	Z20	X21	Y21	Z21	X22	Y22	Z22	X23	Y23	Z23	X24	Y24	Z24

200	0.796	0.055667125	-0.064706441	0.0075325503	-0.48937713	0.090329664	0.14668421	-0.066812868	-0.033678274	-0.023160691	-0.49403687	0.22629297	0.16910528	-0.071309719	-0.018244083	0.065157689	-0.45253068	0.21049373	0.089781066	-0.14579935	-0.058234143	0.019201199	-0.51587672	0.27143384	0.10370211	0.040744014	0.32398671	-0.046237637	-0.13173641	0.30315514	0.23762608	0.01239697	0.32540087	0.072607267	-0.13734998	0.28941903	0.10397835	-0.070297745	0.7059339	-0.12408256	-0.15379547	0.66294947	0.20928847	-0.014330809	0.74399459	-0.06521347	-0.060794641	0.73083181	0.18521539	-0.21347908	0.80903388	0.030017058	-0.089004098	1.2122954	-0.1467272	-0.11885799	1.2089578	0.21674404	-0.18610891	1.2492736	0.027483875	-0.1798027	0.91294246	-0.19651904	-0.17126934	0.89148738	0.29352472	-0.094374061	0.69227562	-0.25984004	0.04065777	0.76165353	0.31407283
201	0.8	0.055575534	-0.064698077	0.0075085809	-0.47169983	0.091831073	0.14752754	-0.066865337	-0.033471111	-0.023205685	-0.47813079	0.22755212	0.16963413	-0.071388413	-0.017964863	0.065006996	-0.43663463	0.21212429	0.09016307	-0.14586706	-0.05805159	0.01919146	-0.50106011	0.2724584	0.1043283	0.042219781	0.32392819	-0.045720426	-0.11663232	0.3052382	0.23778928	0.01169095	0.32585915	0.072862136	-0.12261956	0.29158161	0.10405623	-0.064415432	0.70720961	-0.1242103	-0.14792133	0.66543871	0.20942765	-0.0086452073	0.74575297	-0.065318045	-0.055269937	0.73295435	0.18535119	-0.20667102	0.81078528	0.029634339	-0.081478465	1.2142862	-0.14643896	-0.11292032	1.2109297	0.2169607	-0.17908866	1.2513442	0.027406501	-0.17035863	0.91407501	-0.19712005	-0.16770492	0.89360116	0.29153702	-0.081843144	0.69436188	-0.2593401	0.041798389	0.76027191	0.31474228
202	0.804	0.055479567	-0.064688508	0.0074865041	-0.45364274	0.093050947	0.14836738	-0.066919365	-0.033234066	-0.023237268	-0.46212609	0.22861227	0.17022194	-0.071353542	-0.017607863	0.064899885	-0.42078034	0.21364778	0.090699001	-0.14592301	-0.057825877	0.019073758	-0.48624968	0.27324563	0.10502791	0.043531141	0.32392031	-0.045160491	-0.10154486	0.30761794	0.23787738	0.010777066	0.32627139	0.073007529	-0.10771235	0.29394517	0.10423404	-0.058720204	0.70840295	-0.12435645	-0.14192252	0.66801647	0.20945782	-0.0029880287	0.74750557	-0.065420202	-0.049655724	0.73508087	0.18541099	-0.19992631	0.81261052	0.029309271	-0.074045679	1.2163779	-0.14611663	-0.10703421	1.2129853	0.21720018	-0.17209447	1.2534996	0.027392663	-0.16088395	0.91529551	-0.19776986	-0.16431684	0.89586951	0.28980066	-0.069186873	0.69661145	-0.25871489	0.042792986	0.75903362	0.31538185
203	0.808	0.05538524	-0.064675292	0.0074633057	-0.43518009	0.093997311	0.14922064	-0.066980463	-0.03296349	-0.023284935	-0.44603933	0.22947073	0.17084227	-0.071260215	-0.017215564	0.064811852	-0.40491838	0.21505624	0.09133193	-0.14597708	-0.057573722	0.018914598	-0.47145592	0.27379272	0.10578416	0.04465243	0.32394896	-0.044584742	-0.086498166	0.31028509	0.23788444	0.0095593458	0.32653469	0.073006608	-0.092801996	0.29657074	0.1043204	-0.053262435	0.70953485	-0.1245336	-0.1355781	0.67057735	0.20931877	0.0026336337	0.749232	-0.065531954	-0.043951209	0.737203	0.1854142	-0.19326084	0.81450639	0.029048558	-0.066704013	1.2185613	-0.14577081	-0.10119849	1.2151122	0.21745174	-0.16510564	1.2557155	0.02742657	-0.15147012	0.91661747	-0.19832207	-0.16086328	0.8982307	0.2881401	-0.056458928	0.69901004	-0.25797741	0.043652921	0.75793531	0.31599298
204	0.812	0.055295262	-0.064657671	0.0074412137	-0.41632962	0.094724376	0.15010268	-0.067044131	-0.032663095	-0.023357963	-0.42994444	0.23009597	0.17145544	-0.071190816	-0.016824898	0.064703073	-0.38898134	0.21633034	0.092042617	-0.14602916	-0.057303928	0.018755159	-0.45667588	0.27407502	0.10656614	0.045587258	0.32403057	-0.044015817	-0.07150084	0.31323113	0.23781269	0.0081566431	0.32666008	0.072908434	-0.078097378	0.29950201	0.10421971	-0.047967771	0.71064518	-0.12471488	-0.12904811	0.67312191	0.20916599	0.0082360769	0.75091093	-0.065658242	-0.038167195	0.7393412	0.18539171	-0.18669013	0.81646949	0.02885866	-0.059460705	1.2208221	-0.14540496	-0.095390796	1.2172889	0.21770376	-0.1581212	1.2579614	0.027490299	-0.14215712	0.91803974	-0.19872446	-0.15725558	0.90064072	0.28648141	-0.043775486	0.70151808	-0.2571734	0.044405542	0.75697197	0.31659115
205	0.816	0.055206223	-0.06463771	0.0074245017	-0.39719107	0.095348262	0.15101876	-0.067108545	-0.032348832	-0.023457215	-0.41388484	0.2304744	0.17205045	-0.07121294	-0.016460381	0.064581745	-0.37290499	0.21743984	0.092830313	-0.14605815	-0.056996781	0.018525781	-0.44190911	0.27405711	0.10734057	0.046330985	0.32418752	-0.043485689	-0.05655568	0.31644766	0.23767125	0.0069679481	0.32680424	0.072864425	-0.063693825	0.30273282	0.1039489	-0.042785843	0.71174976	-0.12487426	-0.12262271	0.67567172	0.20922566	0.013827045	0.75252415	-0.065801184	-0.032332431	0.741528	0.18536383	-0.18022967	0.81849659	0.028746075	-0.05232108	1.2231401	-0.14501359	-0.089580543	1.2194915	0.21794612	-0.15115974	1.260207	0.027570827	-0.1328914	0.9195408	-0.19909273	-0.15353597	0.90307909	0.28483592	-0.031201191	0.70410339	-0.25633674	0.045083365	0.756139	0.31718677
206	0.82	0.055110378	-0.064617658	0.0074143681	-0.37794312	0.095967241	0.15193157	-0.067177901	-0.032045045	-0.023580089	-0.3978511	0.23061962	0.17263851	-0.071321824	-0.016113014	0.064469354	-0.35669094	0.21834015	0.09360615	-0.14605718	-0.056645668	0.018205618	-0.42719264	0.27368503	0.10808084	0.046871533	0.32443951	-0.04302744	-0.04167146	0.31992631	0.23746802	0.0063785753	0.32712849	0.072982604	-0.049584613	0.30622783	0.10357765	-0.037741061	0.71283695	-0.12501045	-0.1163778	0.67826186	0.20959398	0.019400044	0.75406263	-0.065968035	-0.02649024	0.74379424	0.18533869	-0.17389505	0.82058472	0.028717445	-0.045257994	1.2254903	-0.1445934	-0.083752022	1.2217025	0.21817078	-0.14423426	1.262435	0.027663578	-0.12362213	0.92109495	-0.19953286	-0.14978985	0.90554721	0.28326914	-0.018689267	0.70676749	-0.2554476	0.045715567	0.75543197	0.31778144
